<svg width="29.000000" height="29.000000" viewBox="0 0 29 29" fill="none" xmlns="http://www.w3.org/2000/svg" xmlns:xlink="http://www.w3.org/1999/xlink">
	<desc>
			Created with Pixso.
	</desc>
	<defs>
		<clipPath id="clip5_91">
			<rect id="folder" width="29.000000" height="29.000000" fill="white" fill-opacity="0"/>
		</clipPath>
	</defs>
	<g clip-path="url(#clip5_91)">
		<path id="Vector" d="M6.48438 2.08545L6.48438 0.474121L9.70703 0.474121L9.70703 2.08545L19.373 2.08545L19.373 0.474121L22.5957 0.474121L22.5957 2.08545L25.0127 2.08545C27.252 2.08545 29.04 3.88965 29.04 6.11279L29.04 25.4463C29.04 27.6694 27.252 29.4741 25.0127 29.4741L4.06738 29.4741C1.84473 29.4741 0.0400391 27.6694 0.0400391 25.4463L0.0400391 6.11279C0.0400391 3.88965 1.84473 2.08545 4.06738 2.08545L6.48438 2.08545ZM6.48438 5.30762L4.06738 5.30762C3.63281 5.30762 3.2627 5.66211 3.2627 6.11279L3.2627 25.4463C3.2627 25.8975 3.63281 26.252 4.06738 26.252L25.0127 26.252C25.4629 26.252 25.8174 25.8975 25.8174 25.4463L25.8174 6.11279C25.8174 5.66211 25.4629 5.30762 25.0127 5.30762L22.5957 5.30762L22.5957 6.91846L19.373 6.91846L19.373 5.30762L9.70703 5.30762L9.70703 6.91846L6.48438 6.91846L6.48438 5.30762ZM6.48438 14.9741L9.70703 14.9741L9.70703 11.752L6.48438 11.752L6.48438 14.9741ZM6.48438 21.4185L9.70703 21.4185L9.70703 18.1963L6.48438 18.1963L6.48438 21.4185ZM12.9287 14.9741L16.1514 14.9741L16.1514 11.752L12.9287 11.752L12.9287 14.9741ZM12.9287 21.4185L16.1514 21.4185L16.1514 18.1963L12.9287 18.1963L12.9287 21.4185ZM19.373 14.9741L22.5957 14.9741L22.5957 11.752L19.373 11.752L19.373 14.9741Z" fill="#536471" fill-opacity="1.000000" fill-rule="nonzero"/>
	</g>
</svg>
