<svg width="24.000000" height="24.000000" viewBox="0 0 24 24" fill="none" xmlns="http://www.w3.org/2000/svg" xmlns:xlink="http://www.w3.org/1999/xlink">
	<desc>
			Created with Pixso.
	</desc>
	<defs>
		<clipPath id="clip5_83">
			<rect id="followers" width="24.000000" height="24.000000" fill="white" fill-opacity="0"/>
		</clipPath>
	</defs>
	<g clip-path="url(#clip5_83)">
		<path id="Vector" d="M2 22C2 19.8784 2.84277 17.8433 4.34277 16.3433C5.84375 14.8428 7.87793 14 10 14C12.1221 14 14.1562 14.8428 15.6572 16.3433C17.1572 17.8433 18 19.8784 18 22L2 22ZM10 13C6.68457 13 4 10.3149 4 7C4 3.68506 6.68457 1 10 1C13.3154 1 16 3.68506 16 7C16 10.3149 13.3154 13 10 13ZM17.3633 15.2329C18.8926 15.626 20.2588 16.4917 21.2686 17.707C22.2773 18.9219 22.877 20.4243 22.9834 22L20 22C20 19.3901 19 17.0142 17.3633 15.2329ZM15.3398 12.957C16.1777 12.2075 16.8486 11.2896 17.3066 10.2627C17.7646 9.23633 18.001 8.12451 18 7C18.002 5.6333 17.6523 4.28955 16.9854 3.09717C18.1172 3.32471 19.1367 3.9375 19.8682 4.83105C20.6006 5.7251 21 6.84473 21 8C21 8.7124 20.8486 9.41699 20.5537 10.0659C20.2598 10.7144 19.8301 11.293 19.2949 11.7627C18.7588 12.2319 18.1289 12.5815 17.4463 12.7876C16.7646 12.9932 16.0459 13.0513 15.3398 12.957Z" fill="#03053D" fill-opacity="1.000000" fill-rule="nonzero"/>
	</g>
</svg>
